<svg xmlns="http://www.w3.org/2000/svg" viewBox="0 0 48 48">
  <defs>
    <linearGradient id="fp" x1="0" y1="0" x2="0" y2="1"><stop offset="0" stop-color="#ffe9a8"/><stop offset="1" stop-color="#edb64f"/></linearGradient>
  </defs>
  <path d="M4 12 a3 3 0 0 1 3-3 h11 l4 4 h19 a3 3 0 0 1 3 3 v22 a3 3 0 0 1-3 3 H7 a3 3 0 0 1-3-3 Z" fill="#d99f36" stroke="#7c5716" stroke-width="1.6"/>
  <path d="M4 18 h40 v20 a3 3 0 0 1-3 3 H7 a3 3 0 0 1-3-3 Z" fill="url(#fp)" stroke="#7c5716" stroke-width="1.6"/>
  <g transform="translate(26 24) rotate(38)">
    <path d="M-3 -8 a6 6 0 1 0 6 0 l0 -1.6 a7.6 7.6 0 1 1-6 0 z" transform="rotate(90)" fill="#9aa7b8" stroke="#44506b" stroke-width="1.3"/>
    <rect x="-2" y="-2.4" width="14" height="4.8" rx="1.6" fill="#9aa7b8" stroke="#44506b" stroke-width="1.3"/>
  </g>
</svg>
