<svg xmlns="http://www.w3.org/2000/svg" viewBox="0 0 48 48">
  <defs>
    <linearGradient id="fg" x1="0" y1="0" x2="0" y2="1"><stop offset="0" stop-color="#ffe9a8"/><stop offset="1" stop-color="#edb64f"/></linearGradient>
    <linearGradient id="pad" x1="0" y1="0" x2="0" y2="1"><stop offset="0" stop-color="#8f7bd8"/><stop offset="1" stop-color="#5b44a8"/></linearGradient>
  </defs>
  <path d="M4 12 a3 3 0 0 1 3-3 h11 l4 4 h19 a3 3 0 0 1 3 3 v22 a3 3 0 0 1-3 3 H7 a3 3 0 0 1-3-3 Z" fill="#d99f36" stroke="#7c5716" stroke-width="1.6"/>
  <path d="M4 18 h40 v20 a3 3 0 0 1-3 3 H7 a3 3 0 0 1-3-3 Z" fill="url(#fg)" stroke="#7c5716" stroke-width="1.6"/>
  <path d="M15 25 h18 a6.5 6.5 0 0 1 6.5 7.2 a5.4 5.4 0 0 1-9.4 3 l-1.6-1.7 h-9 l-1.6 1.7 a5.4 5.4 0 0 1-9.4-3 A6.5 6.5 0 0 1 15 25 Z" fill="url(#pad)" stroke="#2f2354" stroke-width="1.5"/>
  <path d="M18.6 28.2v5M16.1 30.7h5" stroke="#fff" stroke-width="1.7" stroke-linecap="round"/>
  <circle cx="32.5" cy="29.6" r="1.6" fill="#ffcf6b"/>
  <circle cx="35.8" cy="32.4" r="1.6" fill="#7fe08a"/>
</svg>
