<!-- Original SVG authored for DominikOS. Nothing traced. -->
<svg xmlns="http://www.w3.org/2000/svg" viewBox="0 0 48 48">
  <defs>
    <linearGradient id="kierki-felt" x1="8" y1="5" x2="40" y2="44" gradientUnits="userSpaceOnUse">
      <stop offset="0" stop-color="#0b8a2e"/>
      <stop offset="1" stop-color="#065c1d"/>
    </linearGradient>
  </defs>
  <rect x="2" y="2" width="44" height="44" rx="8" fill="url(#kierki-felt)" stroke="#044718" stroke-width="1.6"/>
  <rect x="4" y="4" width="40" height="40" rx="6.5" fill="none" stroke="#78c98a" stroke-width=".8" opacity=".35"/>
  <g transform="rotate(-3 24 24)">
    <rect x="13" y="5.5" width="22" height="37" rx="3" fill="#fdfdf6" stroke="#1f3f8f" stroke-width="1.4"/>
    <rect x="15" y="7.5" width="18" height="33" rx="1.8" fill="none" stroke="#b9b9ad" stroke-width=".7"/>
    <path d="M24 34.8c-1.2-2.2-7.1-5.6-7.1-10.7 0-2.9 1.8-5 4.4-5 1.3 0 2.3.6 2.7 1.4.5-.8 1.5-1.4 2.8-1.4 2.5 0 4.3 2.1 4.3 5 0 5.1-5.8 8.5-7.1 10.7Z" fill="#c8102e"/>
    <path d="M18 13.2c-.4-.7-2.2-1.8-2.2-3.3 0-.9.6-1.6 1.4-1.6.4 0 .7.2.8.5.2-.3.5-.5.9-.5.8 0 1.3.7 1.3 1.6 0 1.5-1.8 2.6-2.2 3.3Z" fill="#c8102e"/>
  </g>
</svg>
