<svg xmlns="http://www.w3.org/2000/svg" viewBox="0 0 48 48">
  <!-- Original Pasjans icon authored for DominikOS: fanned cards on felt. -->
  <defs>
    <linearGradient id="pjback" x1="0" y1="0" x2="1" y2="1">
      <stop offset="0" stop-color="#3a5fc4"/><stop offset="1" stop-color="#1f3f8f"/>
    </linearGradient>
  </defs>
  <rect x="2" y="2" width="44" height="44" rx="8" fill="#0b8a2e" stroke="#065c1d" stroke-width="1.6"/>
  <g transform="rotate(-14 18 30)">
    <rect x="7" y="12" width="19" height="27" rx="3" fill="url(#pjback)" stroke="#0e2a66" stroke-width="1.3"/>
    <path d="M10 15 l13 21 M23 15 l-13 21 M16.5 13.5 v24" stroke="#7ea0e8" stroke-width="1" opacity=".7"/>
  </g>
  <g transform="rotate(9 30 27)">
    <rect x="21" y="9" width="20" height="29" rx="3" fill="#fdfdf6" stroke="#4a4a52" stroke-width="1.4"/>
    <text x="24.5" y="18" font-family="Georgia, serif" font-size="8.5" font-weight="bold" fill="#1c1c1c">A</text>
    <path d="M31 20 c-3.4 4.2-6 5.8-6 8.6 a3.4 3.4 0 0 0 5.4 2.8 l-1.3 3.6 h3.8 l-1.3-3.6 a3.4 3.4 0 0 0 5.4-2.8 c0-2.8-2.6-4.4-6-8.6 z" fill="#1c1c1c"/>
  </g>
  <g transform="rotate(24 38 30)">
    <rect x="30" y="14" width="13" height="21" rx="2.4" fill="#fdfdf6" stroke="#4a4a52" stroke-width="1.2"/>
    <path d="M36.5 19 l3 4.6 -3 4.6 -3-4.6 z" fill="#c8102e"/>
  </g>
</svg>
