<svg xmlns="http://www.w3.org/2000/svg" viewBox="0 0 48 48">
  <defs>
    <linearGradient id="g1" x1="0" y1="0" x2="0" y2="1"><stop offset="0" stop-color="#9d88e8"/><stop offset="1" stop-color="#5b44a8"/></linearGradient>
  </defs>
  <path d="M10 12 h28 a9.5 9.5 0 0 1 9.4 11.2 l-1.3 7.2 a7.6 7.6 0 0 1-13.2 3.7 l-2.7-3.1 h-12.4 l-2.7 3.1 a7.6 7.6 0 0 1-13.2-3.7 l-1.3-7.2 A9.5 9.5 0 0 1 10 12 Z" fill="url(#g1)" stroke="#2f2354" stroke-width="1.8"/>
  <path d="M15.5 17.5v9M11 22h9" stroke="#ffffff" stroke-width="2.6" stroke-linecap="round"/>
  <circle cx="33" cy="19.5" r="2.6" fill="#ffcf6b" stroke="#2f2354" stroke-width="1"/>
  <circle cx="38.5" cy="24.5" r="2.6" fill="#7fe08a" stroke="#2f2354" stroke-width="1"/>
  <rect x="22.6" y="20.8" width="3" height="2.4" rx="1" fill="#d9d2f5"/>
  <rect x="27.4" y="20.8" width="3" height="2.4" rx="1" fill="#d9d2f5"/>
</svg>
